<svg version="1.2" xmlns="http://www.w3.org/2000/svg" viewBox="0 0 100 88" width="15" height="88"><style>tspan{white-space:pre}.a{font-size: 5px;fill: #000000;font-family: "' Helvetica  Neue'"}</style><path  d="m2.4 48.9l32.9 32.9c1.5 1.6 3.5 2.5 5.7 2.5 2.2 0.1 4.3-0.8 5.8-2.3 1.6-1.6 2.4-3.7 2.4-5.8 0-2.2-0.9-4.3-2.5-5.8l-19.5-19.4h64.7c2.2 0 4.2-0.8 5.7-2.4 1.6-1.5 2.4-3.5 2.4-5.7 0-2.1-0.8-4.1-2.4-5.7-1.5-1.5-3.5-2.3-5.7-2.3h-64.5l19.3-19.3c1.4-1.6 2.2-3.6 2.2-5.7 0-2.1-0.9-4.1-2.4-5.6-1.5-1.5-3.5-2.3-5.6-2.3-2.1-0.1-4.1 0.7-5.6 2.2l-32.9 32.9q-0.6 0.6-1 1.2-0.5 0.7-0.8 1.4-0.3 0.7-0.4 1.5-0.2 0.8-0.2 1.6 0 0 0 0 0 0.1 0 0.1 0 0 0 0.1 0 0 0 0 0 0 0 0 0 0.1 0 0.1 0 0 0 0.1 0 0 0 0 0 0.8 0.2 1.6 0.1 0.8 0.4 1.5 0.3 0.7 0.8 1.4 0.4 0.6 1 1.2z"/>
</svg>