<svg version="1.2" xmlns="http://www.w3.org/2000/svg" viewBox="0 0 154 129" width="154" height="129"><style></style><path fill-rule="evenodd" d="m19.3 3.3q3.1 3 3.1 8.2v39.5q0 5.3-3.1 8.3-3 2.9-8.6 2.9h-11v-61.8l11 0.1q5.6 0 8.6 2.8zm-4.9 7.8q0-1.9-1-2.8-1-1-2.8-1h-2v48h2q1.8 0 2.8-1 1-1 1-2.8z"/><path fill-rule="evenodd" d="m46.7 2.2q3 2.9 3 8.6v41q0 5.7-3 8.6-3.1 2.8-8.2 2.8h-0.5q-5.2 0-8.3-2.8-3-2.9-3-8.6v-40.9q0-5.8 3-8.6 3.1-2.9 8.3-2.9h0.5q5.1 0 8.2 2.8zm-4.9 7.8q0-1.8-1-2.8-0.9-0.9-2.5-0.9h-0.1q-1.6 0-2.6 0.9-0.9 1-0.9 2.8v42.6q0 1.8 0.9 2.8 1 0.9 2.6 0.9h0.1q1.6 0 2.5-0.9 1-1 1-2.8z"/><path  d="m153.8 55.3h-10.4v-22.8h8v-6.9h-8v-18.3h10.4v-6.8h-18.4v61.7h18.4z"/><path  d="m14.8 117.6q0 1.8-0.9 2.8-0.9 0.9-2.5 0.9h-0.2q-1.6 0-2.5-0.9-0.9-1-1-2.8v-42.7q0-1.8 0.9-2.7 0.9-0.9 2.4-0.9h0.2q1.5 0 2.4 0.9 0.9 1 0.9 2.7v12.1h7.9v-11.2q0-5.8-3-8.6-3-2.8-8.1-2.8h-0.4q-5.1 0-8.1 2.8-3.1 2.8-3.1 8.6v40.9q0 5.8 3.1 8.6 3 2.9 8.2 2.9h0.5q5.1 0 8.2-2.9 3-2.8 3-8.6v-15.3h-7.9v16.2z"/><path fill-rule="evenodd" d="m47.6 95.8q2.1 2.4 2.1 6.2v25.2h-8v-26q0-4-4.1-4h-2.9v30h-8v-61.8h11.5q5.2 0 8.1 3 3 2.9 3 8.2v9.5q0 3.8-1.9 6.1-0.8 1-2.1 1.7 1.4 0.8 2.3 1.9zm-6.2-8.8v-10.7q0-4-4.1-4h-2.6v18.6h2.6q4.1 0 4.1-3.9z"/><path  d="m143.4 120.3v-22.9h8v-6.8h-8v-18.3h10.4v-6.8h-18.4v61.7h18.8v-6.9z"/><path  d="m76.7 42.1v-41.6h-8v36.8z"/><path  d="m65.2 56.3h-0.2q-1.5 0-2.4-0.9-0.9-1-0.9-2.8v-52.1h-8v51.3q0 5.7 3 8.6 3.1 2.8 8.2 2.8h0.3v-6.9z"/><path fill-rule="evenodd" d="m81 44.7v-44.3h11.4q5.3 0 8.2 2.9 3 3 3 8.2v9.3q0 4-2.1 6.4-0.8 1-2 1.7 1.4 0.8 2.4 1.9 2.1 2.5 2.1 6.5v10.7q0 5.3-2.9 8.2-0.1 0.2-0.3 0.3l-8.7-5.2q3.9-0.1 3.9-4v-11.1q0-4-4.1-4h-2.9v17.3zm8.1-18.8h2.5q4.1 0 4.1-3.9v-10.7q0-4-4.1-4h-2.5z"/><path  d="m116 55.3v-54.8h-8v60.2l2.4 1.5h20.6v-6.9z"/><path  d="m68.8 93.6v25.1q0 1.8-1 2.8-0.9 0.9-2.5 0.9h-0.2q-1.6 0-2.5-0.9-0.9-1-0.9-2.8v-42.6q0-1.8 0.9-2.8 1-0.9 2.5-0.9h0.1v-6.9h-0.2q-5.2 0-8.3 2.9-3 2.8-3 8.6v40.9q0 5.7 3 8.6 3.1 2.8 8.3 2.8h0.5q5.1 0 8.1-2.8 3.1-2.9 3.1-8.6v-29z"/><path  d="m95.7 87.1h8v-11.3q0-1.5-0.2-2.8l-7.8 4.6z"/><path  d="m96.1 117.6q0 1.8-0.9 2.8-1 0.9-2.5 0.9h-0.2q-1.6 0-2.5-0.9-1-1-1-2.8v-36.1l-8 4.8v30.5q0 5.7 3 8.6 3.1 2.8 8.3 2.8h0.5q5.1 0 8.2-2.8 3-2.9 3-8.6v-15.4h-7.9z"/><path  d="m123 65.5v25.1h-7v-25.1l-8 4.7v57h8v-29.8h7v29.8h8v-61.8z"/></svg>